With: Jonathan Bailey, Kate Beckinsale en Desmond Barritt

Alice (Kate Beckinsale) komt tijdens het voorlezen van een boek op mysterieuze wijze in een nieuwe dimensie terechtkomt. Verfilming van het (kinder)boek "Through the looking-glass, and what Alice-found there" van Lewis Carroll, een vervolg op Alice in Wonderland.

A modern adaptation of the classic children's story 'Alice through the Looking Glass' written by Lewis Carol...

------------------ Dutch Friends ------------------
You can find my Friends at: http://www.Film-Test.nl 
------ They got my dutchs subs ---- and more ------

General:

Complete name                    : Alice through the Looking Glass\Alice through the Looking Glass.avi
Format                           : AVI
Format/Info                      : Audio Video Interleave
File size                        : 995 MiB
Duration                         : 1h 23mn
Overall bit rate                 : 1 669 Kbps

Video:

Format                           : MPEG-4 Visual
Format profile                   : Simple@L3
Format settings, BVOP            : No
Format settings, QPel            : No
Format settings, GMC             : No warppoints
Format settings, Matrix          : Default (H.263)
Codec ID                         : XVID
Codec ID/Hint                    : XviD
Duration                         : 1h 23mn
Bit rate                         : 1 466 Kbps
Width                            : 704 pixels
Height                           : 396 pixels
Display aspect ratio             : 16:9
Frame rate                       : 25.000 fps
Color space                      : YUV
Chroma subsampling               : 4:2:0
Bit depth                        : 8 bits
Scan type                        : Progressive
Bits/(Pixel*Frame)               : 0.210
Stream size                      : 874 MiB (88%)
Writing library                  : XviD 1.1.2 (UTC 2006-11-01)

Audio:

Format                           : AC-3
Format/Info                      : Audio Coding 3
Mode extension                   : CM (complete main)
Codec ID                         : 2000
Duration                         : 1h 23mn
Bit rate mode                    : Constant
Bit rate                         : 192 Kbps
Channel(s)                       : 2 channels
Channel positions                : Front: L R
Sampling rate                    : 48.0 KHz
Bit depth                        : 16 bits
Stream size                      : 114 MiB (12%)
Alignment                        : Aligned on interleaves
Interleave, duration             : 32 ms (0.80 video frame)
Interleave, preload duration     : 160 ms


